<?xml version="1.0" encoding="UTF-8" standalone="no"?>
<svg
   xmlns:dc="http://purl.org/dc/elements/1.1/"
   xmlns:cc="http://creativecommons.org/ns#"
   xmlns:rdf="http://www.w3.org/1999/02/22-rdf-syntax-ns#"
   xmlns:svg="http://www.w3.org/2000/svg"
   xmlns="http://www.w3.org/2000/svg"
   xmlns:sodipodi="http://sodipodi.sourceforge.net/DTD/sodipodi-0.dtd"
   xmlns:inkscape="http://www.inkscape.org/namespaces/inkscape"
   width="1610.6899"
   height="1610.691"
   viewBox="0 0 1610.6899 1610.691"
   version="1.1"
   xml:space="preserve"
   style="clip-rule:evenodd;fill-rule:evenodd;stroke-linecap:round;stroke-linejoin:round;stroke-miterlimit:1.5"
   id="svg430"
   sodipodi:docname="logo.svg"
   inkscape:version="1.0.2-2 (e86c870879, 2021-01-15)"><metadata
   id="metadata436"><rdf:RDF><cc:Work
       rdf:about=""><dc:format>image/svg+xml</dc:format><dc:type
         rdf:resource="http://purl.org/dc/dcmitype/StillImage" /><dc:title></dc:title></cc:Work></rdf:RDF></metadata><defs
   id="defs434">
        
    
            
            <clipPath
   id="_clip1">
                <rect
   x="2790.48"
   y="0"
   width="2659.6299"
   height="3507.8701"
   id="rect226" />
            </clipPath>
            
        
                
                
                
                
                
                
                
                
                
                
                
                
                
                
                
                
                
                
                
                
                
                
                
                
                
                
                
                
                
                
                
                
                
                
                
                
                
                
                
                
                
                
                
                
                
                
                
                
                
            </defs><sodipodi:namedview
   pagecolor="#ffffff"
   bordercolor="#666666"
   borderopacity="1"
   objecttolerance="10"
   gridtolerance="10"
   guidetolerance="10"
   inkscape:pageopacity="0"
   inkscape:pageshadow="2"
   inkscape:window-width="1920"
   inkscape:window-height="1051"
   id="namedview432"
   showgrid="false"
   fit-margin-top="0"
   fit-margin-left="0"
   fit-margin-right="0"
   fit-margin-bottom="0"
   inkscape:zoom="0.23745724"
   inkscape:cx="1194.5697"
   inkscape:cy="1462.1525"
   inkscape:window-x="-9"
   inkscape:window-y="-9"
   inkscape:window-maximized="1"
   inkscape:current-layer="svg430" />
    <rect
   x="-135.4321"
   y="-238.23987"
   width="2659.6299"
   height="3507.8701"
   style="fill:none"
   id="rect224" /><g
   transform="translate(-2925.4303,1091.1301)"
   id="g331"
   style="fill:#ff0000">
                    
                </g><g
   transform="translate(-2925.4303,1091.1301)"
   id="g335">
                    
                </g><g
   transform="translate(-2925.4303,1091.1301)"
   id="g339">
                    
                </g><g
   transform="translate(-2925.4303,1091.1301)"
   id="g343">
                    
                </g><g
   transform="translate(-2925.4303,1091.1301)"
   id="g347">
                    
                </g><g
   transform="translate(-2925.4303,1091.1301)"
   id="g351">
                    
                </g><g
   transform="translate(-2925.4303,1091.1301)"
   id="g355">
                    
                </g><g
   transform="translate(-2925.4303,1091.1301)"
   id="g359">
                    
                </g><g
   transform="translate(-2925.4303,1091.1301)"
   id="g363">
                    
                </g><g
   transform="translate(-2925.4303,1091.1301)"
   id="g367">
                    
                </g><g
   transform="matrix(0.963393,0,0,0.963393,11.017929,351.39013)"
   id="g371">
                    
                </g><g
   transform="matrix(0.963393,0,0,0.963393,11.017929,351.39013)"
   id="g375">
                    
                </g><g
   transform="matrix(0.963393,0,0,0.963393,11.017929,351.39013)"
   id="g379">
                    
                </g><g
   transform="matrix(0.963393,0,0,0.963393,11.017929,351.39013)"
   id="g383">
                    
                </g><g
   transform="matrix(0.963393,0,0,0.963393,11.017929,351.39013)"
   id="g387">
                    
                </g><g
   transform="matrix(0.963393,0,0,0.963393,11.017929,351.39013)"
   id="g391">
                    
                </g><g
   transform="matrix(0.963393,0,0,0.963393,11.017929,351.39013)"
   id="g395">
                    
                </g><g
   transform="matrix(350,0,0,350,584.97793,2920.9701)"
   id="g399">
                    
                </g><g
   transform="translate(-2925.4303,1091.1301)"
   id="g403">
                    
                </g><g
   transform="translate(-2925.4303,1091.1301)"
   id="g407">
                    
                </g><g
   transform="translate(-2925.4303,1091.1301)"
   id="g411"
   style="fill:#ff0000">
                    
                </g><g
   transform="translate(-2925.4303,1091.1301)"
   id="g415">
                    
                </g><g
   transform="translate(-2925.4303,1091.1301)"
   id="g419"
   style="fill:#ff0000">
                    
                </g><g
   transform="matrix(0.876271,0,0,0.876271,-561.0618,-918.73001)"
   id="g423"
   style="fill:#ffffff">
                    <path
   id="circle421"
   style="fill:#ffffff"
   d="m 1458.6731,1966.3 a 212.36301,212.36301 0 0 1 -212.363,212.3631 212.36301,212.36301 0 0 1 -212.363,-212.3631 212.36301,212.36301 0 0 1 212.363,-212.363 212.36301,212.36301 0 0 1 212.363,212.363 z m 42.8279,-187.1917 h 41.8022 c 32.9007,0 55.5079,27.4002 55.5079,72.6145 0,43.8563 -22.6072,70.5718 -55.5079,70.5718 h -41.8022 c -2.0541,0 -3.4236,-1.3695 -3.4236,-3.4236 v -136.3391 c 0,-2.0542 1.3695,-3.4236 3.4236,-3.4236 z m 976.3875,217.6952 c -17.8712,-26.0764 -47.1658,-48.3754 -86.8796,-77.9782 -50.7149,-37.671 -69.2137,-54.7889 -69.2137,-89.0363 0,-35.6169 19.8683,-55.4737 45.9105,-55.4737 28.7924,0 48.6607,23.2804 48.6607,58.8973 v 17.8027 c 0,4.793 3.4236,8.2166 8.2166,8.2166 h 47.4511 c 4.211,35.5027 6.3679,71.6445 6.3679,108.277 0,9.7915 -0.1598,19.5488 -0.5135,29.2946 z m -433.4048,122.0056 v -335.5925 c 0,-2.0542 1.3695,-3.4236 3.4236,-3.4236 h 40.4327 c 32.2161,0 52.0844,26.0194 52.0844,67.114 v 208.2118 c -0.6848,40.3985 -21.2378,66.4292 -51.3997,66.4292 l -41.1174,0.6847 c -2.0541,0 -3.4236,-1.3694 -3.4236,-3.4236 z m -71.1309,71.8157 h 117.0528 c 78.7542,0 129.3664,-51.2969 129.3664,-130.713 v -217.7979 c 0,-79.4161 -50.6122,-130.713 -129.3664,-130.713 h -117.0528 c -4.7931,0 -8.2167,3.4236 -8.2167,8.2052 v 462.8135 c 0,4.7816 3.4236,8.2052 8.2167,8.2052 z m -264.3018,0 h 222.454 c 4.793,0 8.2166,-3.4236 8.2166,-8.2052 v -51.9816 c 0,-4.7817 -3.4236,-8.2053 -8.2166,-8.2053 h -147.8995 c -2.0541,0 -3.4236,-1.3694 -3.4236,-3.4236 v -399.1915 c 0,-4.7931 -3.4236,-8.2167 -8.2052,-8.2167 h -62.9257 c -4.7931,0 -8.2167,3.4236 -8.2167,8.2167 v 462.802 c 0,4.7816 3.4236,8.2052 8.2167,8.2052 z m -828.27325,319.1479 31.95359,-153.7767 c 0.39942,-1.5976 1.19825,-1.5976 1.59767,0 l 31.55417,153.7767 c 0,0.7988 -0.39942,1.5976 -1.19826,1.5976 h -62.70891 c -0.79884,0 -1.19826,-0.7988 -1.19826,-1.5976 z m -16.39243,-996.8829 31.94265,-153.8204 c 0.39909,-1.6051 1.19837,-1.6051 1.59746,0 l 31.54356,153.8204 c 0,0.8025 -0.39909,1.5941 -1.19727,1.5941 h -62.68913 c -0.79818,0 -1.19727,-0.7916 -1.19727,-1.5941 z m 1029.66408,-179.382 v -16.7442 c 0,-2.3858 -1.5942,-3.9799 -3.9909,-3.9799 h -118.5839 c -2.3967,0 -3.9909,1.5941 -3.9909,3.9799 v 271.5796 c 0,2.3858 1.5942,3.9799 3.9909,3.9799 h 118.5839 c 2.3967,0 3.9909,-1.5941 3.9909,-3.9799 v -16.7442 c 0,-2.3968 -1.5942,-3.9909 -3.9909,-3.9909 h -92.6595 c -0.8025,0 -1.6051,-0.7916 -1.6051,-1.5942 v -99.5088 c 0,-0.7916 0.8026,-1.5942 1.6051,-1.5942 h 58.3135 c 2.3967,0 3.9909,-1.5941 3.9909,-3.9909 v -17.14 c 0,-2.3857 -1.5942,-3.9799 -3.9909,-3.9799 h -58.3135 c -0.8025,0 -1.6051,-0.8026 -1.6051,-1.6052 v -99.102 c 0,-0.8026 0.8026,-1.5942 1.6051,-1.5942 h 92.6595 c 2.3967,0 3.9909,-1.5941 3.9909,-3.9909 z m -723.302,258.8153 h 117.3876 c 2.3968,0 3.991,-1.5941 3.991,-3.9799 v -16.7442 c 0,-2.3968 -1.5942,-3.9909 -3.991,-3.9909 h -91.4687 c -0.7993,0 -1.5975,-0.7916 -1.5975,-1.5942 v -249.2393 c 0,-2.3968 -1.5952,-3.9909 -3.9876,-3.9909 h -20.3338 c -2.3924,0 -3.9876,1.5941 -3.9876,3.9909 v 271.5686 c 0,2.3858 1.5952,3.9799 3.9876,3.9799 z m -158.1708,0 h 117.3866 c 2.3967,0 3.9942,-1.5941 3.9942,-3.9799 v -16.7442 c 0,-2.3968 -1.5975,-3.9909 -3.9942,-3.9909 h -91.4666 c -0.7992,0 -1.5985,-0.7916 -1.5985,-1.5942 v -249.2393 c 0,-2.3968 -1.5942,-3.9909 -3.9865,-3.9909 h -20.335 c -2.3923,0 -3.9865,1.5941 -3.9865,3.9909 v 271.5686 c 0,2.3858 1.5942,3.9799 3.9865,3.9799 z m 522.7968,-279.5394 h -133.7559 c -2.3967,0 -3.9909,1.5941 -3.9909,3.9799 v 16.7442 c 0,2.3968 1.5942,3.9909 3.9909,3.9909 h 49.5291 c 0.8026,0 1.5941,0.7916 1.5941,1.5942 v 249.2393 c 0,2.3968 1.5942,3.9909 3.991,3.9909 h 20.3393 c 2.3857,0 3.9799,-1.5941 3.9799,-3.9909 v -249.2393 c 0,-0.8026 0.8026,-1.5942 1.6052,-1.5942 h 52.7173 c 2.3968,0 3.9909,-1.5941 3.9909,-3.9909 v -16.7442 c 0,-2.3858 -1.5941,-3.9799 -3.9909,-3.9799 z m 149.0379,3.9909 v 121.4313 c 0,0.7916 -0.8026,1.5942 -1.6052,1.5942 h -71.1437 c -0.7916,0 -1.5941,-0.8026 -1.5941,-1.5942 v -121.4313 c 0,-2.3968 -1.5942,-3.9909 -3.9909,-3.9909 h -20.3284 c -2.3967,0 -3.9909,1.5941 -3.9909,3.9909 v 271.5576 c 0,2.3968 1.5942,3.9909 3.9909,3.9909 h 20.3284 c 2.3967,0 3.9909,-1.5941 3.9909,-3.9909 v -121.8271 c 0,-0.7916 0.8025,-1.5942 1.5941,-1.5942 h 71.1437 c 0.8026,0 1.6052,0.8026 1.6052,1.5942 v 121.8271 c 0,2.3968 1.5941,3.9909 3.9799,3.9909 h 20.3393 c 2.3968,0 3.9909,-1.5941 3.9909,-3.9909 v -271.5576 c 0,-2.3968 -1.5941,-3.9909 -3.9909,-3.9909 h -20.3393 c -2.3858,0 -3.9799,1.5941 -3.9799,3.9909 z m 312.3132,278.7478 c 39.1725,0 67.0869,-27.9143 67.0869,-72.2541 0,-37.9521 -19.9436,-53.9377 -60.2924,-83.897 -32.3671,-23.9674 -45.5601,-35.9511 -45.5601,-61.5237 0,-28.3652 15.9856,-43.5482 36.7757,-43.5482 23.1758,0 38.7657,18.7782 38.7657,47.1433 v 10.3895 c 0,2.3968 1.5941,3.9909 3.9909,3.9909 h 19.9325 c 2.3968,0 3.9909,-1.5941 3.9909,-3.9909 v -9.9937 c 0,-43.5482 -26.3202,-72.2541 -66.68,-72.2541 -37.5673,0 -64.6791,25.1108 -64.6791,67.4606 0,42.3498 26.3092,62.3263 57.8846,85.4912 29.5745,22.3732 47.9569,34.7637 47.9569,63.1289 0,27.5625 -17.184,45.1423 -39.1725,45.1423 -22.3732,0 -38.3698,-18.3824 -38.3698,-47.1433 v -8.3886 c 0,-2.3967 -1.5942,-3.9909 -3.98,-3.9909 h -19.9435 c -2.3857,0 -3.9799,1.5942 -3.9799,3.9909 v 9.587 c 0,42.3498 27.1118,70.6599 66.2732,70.6599 z m 31.5542,738.4827 h 35.982 c 24.376,0 40.7637,20.3818 40.7637,52.3583 0,31.1661 -16.3877,51.5479 -40.7637,51.5479 h -35.982 c -0.7874,0 -1.5977,-0.7988 -1.5977,-1.5976 v -100.7109 c 0,-0.7988 0.8103,-1.5977 1.5977,-1.5977 z m -965.3863,0 h 35.9706 c 24.376,0 40.7637,20.3818 40.7637,52.3583 0,31.1661 -16.3877,51.5479 -40.7637,51.5479 h -35.9706 c -0.7988,0 -1.6091,-0.7988 -1.6091,-1.5976 v -100.7109 c 0,-0.7988 0.8103,-1.5977 1.6091,-1.5977 z m 625.1148,233.7177 c -23.988,0 -40.3756,-17.9853 -40.3756,-43.5482 v -149.0178 c 0,-25.9623 16.3876,-43.9476 40.3756,-43.9476 24.3761,0 41.1631,17.9853 41.1631,43.9476 v 149.0178 c 0,25.5629 -16.787,43.5482 -41.1631,43.5482 z m -180.9257,21.1692 h 20.3362 c 2.3965,0 3.9827,-1.5977 3.9827,-3.9942 v -119.4265 c 0,-0.3994 0,-1.5977 0.3995,-1.9971 l 55.1199,-148.9836 c 0.7988,-2.7959 -0.3994,-4.793 -3.1954,-4.793 h -21.5686 c -1.9971,0 -3.9942,1.1982 -4.7931,3.1953 l -39.1089,117.03 c -0.3994,1.1983 -1.9971,1.1983 -2.3965,0 l -39.1203,-117.03 c -0.7988,-1.9971 -2.7959,-3.1953 -4.793,-3.1953 h -21.5687 c -2.796,0 -3.9942,1.9971 -3.1954,4.793 l 55.5194,148.9836 c 0.3994,0.3994 0.3994,1.5977 0.3994,1.9971 v 119.4265 c 0,2.3965 1.5977,3.9942 3.9828,3.9942 z m -170.5979,-258.4702 v -16.7414 c 0,-2.3852 -1.5977,-3.9828 -3.9942,-3.9828 h -118.5821 c -2.3851,0 -3.9827,1.5976 -3.9827,3.9828 v 271.5712 c 0,2.3965 1.5976,3.9828 3.9827,3.9828 h 118.5821 c 2.3965,0 3.9942,-1.5863 3.9942,-3.9828 v -16.7414 c 0,-2.3851 -1.5977,-3.9828 -3.9942,-3.9828 h -92.6654 c -0.7989,0 -1.5977,-0.7988 -1.5977,-1.5977 v -99.5126 c 0,-0.7988 0.7988,-1.5976 1.5977,-1.5976 h 58.3153 c 2.3965,0 3.9942,-1.5863 3.9942,-3.9828 v -17.1408 c 0,-2.3851 -1.5977,-3.9828 -3.9942,-3.9828 h -58.3153 c -0.7989,0 -1.5977,-0.7989 -1.5977,-1.5977 v -99.1132 c 0,-0.7988 0.7988,-1.5977 1.5977,-1.5977 h 92.6654 c 2.3965,0 3.9942,-1.5862 3.9942,-3.9827 z m 773.7218,258.8126 h 20.7356 c 2.7845,0 3.9828,-1.5977 3.1839,-4.3936 l -43.4911,-125.8059 c -0.3994,-1.1982 0,-1.5976 1.1983,-1.9971 25.5514,-9.5632 41.494,-35.5141 41.494,-71.0853 0,-45.9447 -26.3046,-76.6543 -65.0712,-76.6543 h -65.8928 c -2.3852,0 -3.9828,1.5862 -3.9828,3.9827 v 271.9593 c 0,2.3965 1.5976,3.9942 3.9828,3.9942 h 20.3361 c 2.3965,0 3.9828,-1.5977 3.9828,-3.9942 v -123.0213 c 0,-0.7989 0.8103,-1.5977 1.5977,-1.5977 h 34.3729 c 0.8103,0 1.1983,0 1.6091,1.1983 l 41.1631,124.2195 c 0.7988,1.9971 2.7845,3.1954 4.7816,3.1954 z m -965.3977,0 h 20.7356 c 2.7845,0 3.9828,-1.5977 3.184,-4.3936 l -43.4912,-125.8059 c -0.3994,-1.1982 0,-1.5976 1.1983,-1.9971 25.5515,-9.5632 41.494,-35.5141 41.494,-71.0853 0,-45.9447 -26.3046,-76.6543 -65.0712,-76.6543 h -65.8928 c -2.3851,0 -3.9828,1.5862 -3.9828,3.9827 v 271.9593 c 0,2.3965 1.5977,3.9942 3.9828,3.9942 h 20.3361 c 2.3966,0 3.9828,-1.5977 3.9828,-3.9942 v -123.0213 c 0,-0.7989 0.8103,-1.5977 1.6091,-1.5977 h 34.3615 c 0.8103,0 1.2097,0 1.6091,1.1983 l 41.1631,124.2195 c 0.7988,1.9971 2.7845,3.1954 4.7816,3.1954 z m 543.1995,3.1953 c 41.1631,0 69.4649,-27.9023 69.4649,-69.8528 V 2376.355 c 0,-41.9505 -28.3018,-69.8528 -69.4649,-69.8528 -40.7636,0 -68.6773,27.9023 -68.6773,69.8528 v 146.2219 c 0,41.9505 27.9137,69.8528 68.6773,69.8528 z m 186.1297,0 c 41.5625,0 69.0654,-30.6982 69.0654,-77.0309 v -201.707 c 0,-2.3966 -1.5863,-3.9942 -3.9828,-3.9942 h -20.3362 c -2.3851,0 -3.9828,1.5976 -3.9828,3.9942 v 204.9023 c 0,29.1577 -16.3876,49.1287 -40.7636,49.1287 -23.988,0 -39.9762,-19.971 -39.9762,-49.1287 v -204.9023 c 0,-2.3966 -1.5863,-3.9942 -3.9828,-3.9942 h -20.3362 c -2.3851,0 -3.9828,1.5976 -3.9828,3.9942 v 201.707 c 0,46.3327 27.5143,77.0309 68.278,77.0309 z M 1418.7298,1810.651 c -44.1073,-60.1526 -115.3068,-99.2501 -195.5559,-99.2501 -70.1952,0 -133.4633,29.9109 -177.7418,77.6701 l 11.8799,-63.291 c 0.6847,-5.4777 -2.0542,-8.9013 -7.5206,-8.9013 h -63.62182 c -4.79304,0 -8.21664,2.0541 -8.90136,7.5319 l -43.09169,285.4825 c -0.68472,2.7388 -3.4236,2.7388 -4.10832,0 l -46.5267,-285.4825 c -0.67331,-5.4778 -4.09691,-7.5319 -8.88995,-7.5319 h -54.73192 c -4.78163,0 -8.20523,2.0541 -8.88995,7.5319 l -43.1031,285.4825 c -0.68472,2.7388 -3.4236,2.7388 -4.09691,0 l -47.89614,-285.4825 c -0.68472,-5.4778 -4.0969,-7.5319 -8.88994,-7.5319 h -32.11336 c 38.04759,-134.2929 105.8919,-256.1206 195.95537,-357.871 l -50.82903,228.9269 c -0.39942,2.3965 0.79884,4.3936 3.59478,4.3936 h 20.37041 c 2.39652,0 3.9942,-1.1983 4.38221,-3.5948 l 10.38491,-49.5281 c 0,-0.7988 1.19826,-1.5976 1.9971,-1.5976 h 72.27216 c 0.79884,0 1.9971,0.7988 1.9971,1.5976 l 9.9855,49.5281 c 0.39942,2.3965 1.9971,3.5948 4.39361,3.5948 h 20.75842 c 2.79594,0 3.9942,-1.9971 3.59478,-4.3936 l -60.68899,-271.5564 -0.51354,-1.5361 c 166.12437,-164.666 394.64957,-266.3879 646.75197,-266.3879 251.0411,0 478.699,100.8649 644.6408,264.3292 h -93.7952 c -2.3965,0 -3.9942,1.5942 -3.9942,3.9862 v 271.5724 c 0,2.3908 1.5977,3.9862 3.9942,3.9862 h 118.582 c 2.3965,0 3.9942,-1.5954 3.9942,-3.9862 v -16.7426 c 0,-2.3919 -1.5977,-3.9862 -3.9942,-3.9862 h -92.6654 c -0.7988,0 -1.5977,-0.7988 -1.5977,-1.5977 v -99.5046 c 0,-0.7988 0.7989,-1.5976 1.5977,-1.5976 h 58.3153 c 2.3965,0 3.9942,-1.5954 3.9942,-3.9874 v -17.1408 c 0,-2.392 -1.5977,-3.9862 -3.9942,-3.9862 h -58.3153 c -0.7988,0 -1.5977,-0.7989 -1.5977,-1.5977 v -99.1052 c 0,-0.7988 0.7989,-1.5977 1.5977,-1.5977 h 92.072 c 102.9019,109.1261 179.3966,243.4453 219.1902,392.6982 -20.9981,-15.6002 -48.113,-24.2733 -79.6443,-24.2733 -73.2765,0 -123.9001,47.8733 -123.9001,123.8658 0,76.7 51.9817,115.0557 104.0204,152.7267 47.976,35.6168 71.9526,52.7348 71.9526,89.0364 0,34.2474 -20.553,56.1584 -48.6493,56.1584 -27.4231,0 -47.9761,-23.2805 -47.9761,-59.582 v -15.0639 c 0,-4.8044 -3.4236,-8.228 -8.2166,-8.228 h -61.5563 c -4.7816,0 -8.2052,3.4236 -8.2052,8.228 v 19.1722 c 0,73.2536 50.6122,123.8658 125.9542,123.8658 34.0305,0 63.4963,-10.3849 85.453,-29.1577 -27.7426,125.2581 -81.0708,240.9415 -154.3016,341.2871 -3.9257,-29.751 -23.6571,-45.3398 -59.4907,-71.9526 -32.3759,-23.9652 -45.5681,-35.9478 -45.5681,-61.522 0,-28.3589 15.9882,-43.5482 36.7808,-43.5482 23.1778,0 38.7666,18.7841 38.7666,47.1429 v 10.3849 c 0,2.3966 1.5977,3.9942 3.9828,3.9942 h 19.9367 c 2.3965,0 3.9828,-1.5976 3.9828,-3.9942 v -9.9854 c 0,-43.5482 -26.3046,-72.2494 -66.6689,-72.2494 -37.5683,0 -64.6832,25.1064 -64.6832,67.4563 0,42.3499 26.3161,62.3209 57.8817,85.4987 29.5799,22.3675 47.9646,34.7495 47.9646,63.1197 0,27.56 -17.1865,45.1459 -39.166,45.1459 -22.3903,0 -38.3785,-18.3848 -38.3785,-47.143 v -8.3878 c 0,-2.3965 -1.5863,-3.9942 -3.9828,-3.9942 h -19.9367 c -2.3852,0 -3.9828,1.5977 -3.9828,3.9942 v 9.5861 c 0,41.2772 25.7568,69.2251 63.3365,70.5261 -167.8476,180.96 -407.6592,294.2697 -673.7299,294.2697 -275.7366,0 -523.2742,-121.6975 -691.72664,-314.2521 l 7.58898,-36.2103 c 0,-0.7988 1.19826,-1.5976 1.9971,-1.5976 h 72.27216 c 0.79884,0 1.9971,0.7988 1.9971,1.5976 l 9.97408,49.5281 c 0.39942,2.3965 1.9971,3.5948 4.39362,3.5948 h 20.76983 c 2.78453,0 3.98279,-1.9971 3.58337,-4.3936 l -60.68899,-271.5485 c -0.39942,-2.3965 -1.9971,-3.5947 -4.39362,-3.5947 h -23.95378 c -2.39651,0 -3.99419,1.1982 -4.39361,3.5947 L 845.16297,2545.652 C 717.06333,2387.7784 640.28343,2186.5393 640.28343,1967.5089 c 0,-51.16 4.1882,-101.3385 12.23366,-150.2047 l 72.99111,371.2665 c 0.68472,5.4777 4.10832,7.5319 8.90136,7.5319 h 58.82883 c 4.79304,0 8.21664,-2.0542 8.90136,-7.5319 l 42.40697,-290.9603 c 0.68472,-3.4236 3.4236,-3.4236 4.10832,0 l 45.84198,290.9603 c 0.67331,5.4777 4.09691,7.5319 8.88995,7.5319 h 58.15552 c 4.78163,0 8.20523,-2.0542 8.88994,-7.5319 l 27.34314,-145.6627 c 35.54833,89.6868 123.11263,153.1946 225.39833,153.1946 80.2491,0 151.4486,-39.0975 195.5559,-99.2616 v 85.5672 c 0,4.793 3.4236,8.2166 8.2167,8.2166 h 62.9257 c 4.7816,0 8.2052,-3.4236 8.2052,-8.2166 v -195.1451 c 0,-2.0542 1.3695,-3.4236 3.4236,-3.4236 h 35.6397 c 2.0541,0 2.7389,1.3694 3.4236,2.7389 l 58.9315,197.1992 c 1.3695,4.1083 4.1083,6.8472 8.89,6.8472 h 65.6646 c 5.4777,0 8.9013,-3.4236 6.8472,-9.5861 l -67.0341,-206.0892 c -0.6847,-2.0541 0,-3.4236 2.0542,-4.1083 38.9834,-20.5073 62.241,-63.6219 62.241,-120.4878 0,-82.8739 -49.2542,-139.6372 -122.5192,-139.6372 h -128.693 c -4.7931,0 -8.2167,3.4236 -8.2167,8.2052 z" />
                </g>
</svg>
