<?xml version="1.0" encoding="UTF-8" standalone="no"?>
<!DOCTYPE svg PUBLIC "-//W3C//DTD SVG 1.1//EN" "http://www.w3.org/Graphics/SVG/1.1/DTD/svg11.dtd">
<svg width="100%" height="100%" viewBox="0 0 756 756" version="1.1" xmlns="http://www.w3.org/2000/svg" xmlns:xlink="http://www.w3.org/1999/xlink" xml:space="preserve" xmlns:serif="http://www.serif.com/" style="fill-rule:evenodd;clip-rule:evenodd;stroke-linejoin:round;stroke-miterlimit:2;">
    <g transform="matrix(-2.05864e-16,1.12067,-0.734091,-1.3485e-16,344.624,152.708)">
        <path d="M292.658,39.838L448.947,352.415L136.369,352.415L292.658,39.838Z" style="fill:rgb(70,80,95);"/>
    </g>
    <g transform="matrix(-7.16142e-17,1.16955,1.16955,7.16142e-17,-97.5997,-166.723)">
        <path d="M337.291,156.914C268.479,209.584 228.122,291.297 228.122,377.953C228.122,531.582 352.849,656.31 506.479,656.31C580.304,656.31 651.105,626.983 703.307,574.781L617.026,488.5C587.707,517.819 547.942,534.29 506.479,534.29C420.194,534.29 350.141,464.238 350.141,377.953C350.141,329.283 372.808,283.39 411.455,253.808L337.291,156.914Z" style="fill:rgb(70,80,95);"/>
    </g>
</svg>
